<?xml version="1.0" encoding="UTF-8" standalone="no"?><!DOCTYPE svg PUBLIC "-//W3C//DTD SVG 1.1//EN" "http://www.w3.org/Graphics/SVG/1.1/DTD/svg11.dtd"><svg width="100%" height="100%" viewBox="0 0 40 40" version="1.1" xmlns="http://www.w3.org/2000/svg" xmlns:xlink="http://www.w3.org/1999/xlink" xml:space="preserve" xmlns:serif="http://www.serif.com/" style="fill-rule:evenodd;clip-rule:evenodd;stroke-linecap:round;stroke-linejoin:round;stroke-miterlimit:1.5;"><g><path d="M3.029,17.901c0,0 9.306,-9.845 14.153,-14.972c0.743,-0.786 1.778,-1.232 2.86,-1.232c1.082,-0 2.117,0.445 2.86,1.232c4.827,5.104 14.069,14.876 14.069,14.876" style="fill:none;stroke:#fff;stroke-width:4.09px;"/><path d="M6.602,24.17c0,0 -0.017,5.38 -0.03,9.503c-0.004,1.227 0.481,2.405 1.348,3.274c0.867,0.869 2.044,1.357 3.271,1.356c4.739,-0.004 12.088,-0.01 17.035,-0.014c1.387,-0.001 2.716,-0.555 3.692,-1.539c0.977,-0.984 1.521,-2.317 1.512,-3.704c-0.027,-4.092 -0.061,-9.088 -0.061,-9.088" style="fill:none;stroke:#fff;stroke-width:4.08px;"/></g></svg>