<?xml version="1.0" encoding="UTF-8" standalone="no"?><!DOCTYPE svg PUBLIC "-//W3C//DTD SVG 1.1//EN" "http://www.w3.org/Graphics/SVG/1.1/DTD/svg11.dtd"><svg width="100%" height="100%" viewBox="0 0 24 24" version="1.1" xmlns="http://www.w3.org/2000/svg" xmlns:xlink="http://www.w3.org/1999/xlink" xml:space="preserve" xmlns:serif="http://www.serif.com/" style="fill-rule:evenodd;clip-rule:evenodd;stroke-linejoin:round;stroke-miterlimit:2;"><path d="M15.478,3.494l0,17.012c0,0.684 -0.555,1.239 -1.239,1.239l-2.478,0c-0.684,0 -1.239,-0.555 -1.239,-1.239l0,-17.012c0,-0.684 0.555,-1.239 1.239,-1.239l2.478,0c0.684,0 1.239,0.555 1.239,1.239Z" style="fill:#6b225d;"/><path d="M21.506,15.478l-17.012,0c-0.684,0 -1.239,-0.555 -1.239,-1.239l0,-2.478c0,-0.684 0.555,-1.239 1.239,-1.239l17.012,-0c0.684,0 1.239,0.555 1.239,1.239l0,2.478c0,0.684 -0.555,1.239 -1.239,1.239Z" style="fill:#6b225d;"/><path d="M14.478,3.494l0,17.012c0,0.684 -0.555,1.239 -1.239,1.239l-2.478,0c-0.684,0 -1.239,-0.555 -1.239,-1.239l0,-17.012c0,-0.684 0.555,-1.239 1.239,-1.239l2.478,0c0.684,0 1.239,0.555 1.239,1.239Z" style="fill:#ebebeb;"/><path d="M20.506,14.478l-17.012,0c-0.684,0 -1.239,-0.555 -1.239,-1.239l0,-2.478c0,-0.684 0.555,-1.239 1.239,-1.239l17.012,-0c0.684,0 1.239,0.555 1.239,1.239l0,2.478c0,0.684 -0.555,1.239 -1.239,1.239Z" style="fill:#ebebeb;"/></svg>