<?xml version="1.0" encoding="UTF-8" standalone="no"?><!DOCTYPE svg PUBLIC "-//W3C//DTD SVG 1.1//EN" "http://www.w3.org/Graphics/SVG/1.1/DTD/svg11.dtd"><svg width="100%" height="100%" viewBox="0 0 480 480" version="1.1" xmlns="http://www.w3.org/2000/svg" xmlns:xlink="http://www.w3.org/1999/xlink" xml:space="preserve" xmlns:serif="http://www.serif.com/" style="fill-rule:evenodd;clip-rule:evenodd;stroke-linejoin:round;stroke-miterlimit:2;"><g><path d="M186.387,273.194c4.145,2.243 14.504,12.64 42.123,16.55c17.063,2.415 33.091,-1.296 35.893,-1.945c13.536,-3.134 25.764,-10.836 27.818,-12.13c0.411,-0.291 3.517,-3.247 5.437,-2.602c2.03,0.681 1.544,3.532 2.012,15.56c0.905,23.243 1.066,23.37 0.043,25.098c-1.688,2.852 -5.324,2.099 -3.105,6.655c8.992,18.456 20.109,19.26 92.046,43.995c28.858,9.922 44.311,9.89 45.375,78.233c0.046,2.952 0.559,35.863 -0.386,36.905c-0.994,1.097 -14.692,-0.028 -239.076,0.18c-147.298,0.136 -147.944,0.813 -148.506,-0.475c-0.046,-0.106 -1.274,-47.972 1.883,-68.511c5.851,-38.074 21.068,-38.731 50.937,-48.936c60.982,-20.835 78.138,-23.964 86.56,-42.755c1.981,-4.421 -3.708,-3.16 -3.646,-8.003c0.038,-2.93 0.441,-34.331 1.312,-36.603c0.657,-1.712 3.003,-1.266 3.278,-1.214Z" style="fill:#563742;"/><path d="M310.743,226.056c-1.23,2.381 -0.959,3.203 -6.657,14.262c-2.254,4.374 -10.629,14.622 -11.624,15.839c-21.472,19.162 -29.831,26.968 -49.177,28.793c-29.506,2.783 -50.963,-26.637 -56.352,-28.886c-0.69,-1.32 -0.584,-1.316 -1.575,-2.438c-9.263,-10.489 -7.381,-12.248 -11.179,-14.346l0.579,-0.231c0.128,-0.187 0.551,0.167 0.679,-0.019c0.432,-0.633 -0.326,-0.218 -0.965,-0.646c-8.863,-20.219 -13.261,-26.535 -9.99,-87.47c0.316,-5.891 24.927,-5.166 46.715,-51.659c1.016,-2.168 12.598,-26.883 13.113,-26.903c2.436,-0.095 -3.177,12.003 15.305,32.044c18.277,19.819 43.616,20.911 47.792,21.091c10.355,0.446 9.438,4.456 19.695,5.427c2.641,0.25 7.409,-0.315 7.537,2.365c1.627,34.043 1.958,33.989 1.955,51.561c-0.004,26.131 -5.742,40.58 -5.852,41.218Z" style="fill:#fea58e;"/><path d="M311.366,226.056c0.111,-0.638 5.848,-15.087 5.852,-41.218c0.003,-17.572 -0.328,-17.518 -1.955,-51.561c-0.128,-2.68 -4.896,-2.115 -7.537,-2.365c-10.257,-0.971 -9.341,-4.98 -19.695,-5.427c-4.175,-0.18 -29.515,-1.272 -47.792,-21.091c-18.482,-20.041 -12.869,-32.138 -15.305,-32.044c-0.514,0.02 -12.097,24.735 -13.113,26.903c-21.788,46.493 -46.399,45.767 -46.715,51.659c-3.271,60.936 1.127,67.251 9.99,87.47l0.286,0.665l-0.579,0.231c-23.246,1.431 -30.316,-9.482 -29.933,-12.386c0.898,-6.818 0.849,-6.904 -2.759,-18.292c-5.057,-15.961 -1.013,-19.849 -0.451,-29.864c0.4,-7.138 -9.142,-15.803 -12.511,-30.493c-1.81,-7.89 -0.786,-8.114 1.468,-10.243c23.213,-21.932 13.664,-27.617 27.51,-56.435c22.529,-46.894 50.346,-49.039 70.849,-46.325c2.287,0.303 8.105,-6.752 21.737,-6.946c57.786,-0.819 54.825,49.397 86.539,90.295c5.647,7.283 10.628,11.411 11.05,12.044c1.1,1.649 -7.892,9.082 -5.791,12.01c6.816,9.496 14.982,10.226 3.605,34.622c-14.008,30.04 -0.228,44.965 -2.472,49.63c-1.571,3.265 -26.006,5.98 -32.277,-0.838Z" style="fill:#55322d;"/><path d="M187.561,256.064c5.389,2.249 26.846,31.669 56.352,28.886c19.346,-1.825 27.704,-9.63 49.177,-28.793c-0.348,1.424 -0.929,3.804 -1.243,18.275c-0.029,1.35 0.763,1.05 0.898,1.236c-2.054,1.294 -14.283,8.996 -27.818,12.13c-2.802,0.649 -18.83,4.36 -35.893,1.945c-27.619,-3.91 -37.978,-14.307 -42.123,-16.55c1.533,-1.188 1.095,-1.48 0.979,-5.608c-0.162,-5.781 -0.134,-5.707 -0.328,-11.522Z" style="fill:#d37d64;"/><path d="M239.454,238.383c0.638,0.427 1.397,0.012 0.965,0.646c-0.128,0.187 -0.551,-0.167 -0.679,0.019l-0.286,-0.665Z" style="fill:#c2887f;"/></g></svg>