<?xml version="1.0" encoding="UTF-8" standalone="no"?><!DOCTYPE svg PUBLIC "-//W3C//DTD SVG 1.1//EN" "http://www.w3.org/Graphics/SVG/1.1/DTD/svg11.dtd"><svg width="100%" height="100%" viewBox="0 0 24 24" version="1.1" xmlns="http://www.w3.org/2000/svg" xmlns:xlink="http://www.w3.org/1999/xlink" xml:space="preserve" xmlns:serif="http://www.serif.com/" style="fill-rule:evenodd;clip-rule:evenodd;stroke-linejoin:round;stroke-miterlimit:2;"><path d="M9.9,2.022l4.203,-0c0.067,0.027 0.082,0.112 0.149,0.14c0.5,0.201 1.739,0.12 2.373,2.193c0.064,0.616 0.029,0.623 0.069,0.664c0,0 0.362,0.083 0.393,0.09c0.361,0 0.722,0 1.083,0l0.816,-0c0.361,0 0.722,0 1.083,0c0.338,0.021 0.328,0.019 0.648,0.082l0.152,0.078c0.486,0.457 0.36,0.509 0.375,1.118c0.009,0.375 0.549,0.265 0.721,0.268c0.039,0.034 0.112,0.028 0.151,0.062c0.013,0.011 0.19,1.013 -0.037,1.444c-0.173,0.006 -0.345,0.012 -0.518,0.018l-0.271,0c-0.75,0.027 -0.748,0.014 -0.81,0.029c-0.193,0.047 -0.171,0.126 -0.167,6.224c-0.001,0.34 -0.001,0.681 -0.002,1.021l-0,0.565c0,0.34 0.001,0.681 0.001,1.021l-0.001,0.565c0.001,2.413 0.047,2.426 -0.265,3.165c-0.064,0.089 -0.127,0.179 -0.191,0.268c-0.245,0.272 -0.204,0.317 -1.55,1.045l-12.61,-0c-1.379,-0.746 -1.33,-0.801 -1.55,-1.045c-0.063,-0.089 -0.127,-0.179 -0.19,-0.268c-0.327,-0.813 -0.26,-0.833 -0.265,-6.903c-0.003,-5.52 0.043,-5.607 -0.168,-5.658c-0.052,-0.013 -0.05,-0.002 -0.674,-0.028l-0.407,-0.001c-0.172,-0.006 -0.345,-0.012 -0.517,-0.019c-0.237,-0.453 -0.044,-1.437 -0.036,-1.444c0.039,-0.034 0.112,-0.029 0.151,-0.062c0.157,-0.004 0.71,0.105 0.72,-0.268c0.016,-0.616 -0.104,-0.665 0.375,-1.119l0.152,-0.077c0.328,-0.065 0.319,-0.062 0.648,-0.082c0.361,-0 0.722,-0 1.083,-0l0.816,0c0.361,0 0.722,0 1.083,0c0.319,-0.072 0.413,-0.01 0.432,-0.194c0.025,-0.248 -0.114,-1.008 0.847,-2.005c0.339,-0.352 1.037,-0.651 1.083,-0.661c0.156,-0.035 0.326,-0.029 0.474,-0.083c0.069,-0.025 0.078,-0.119 0.148,-0.144Z" style="fill:#2d2047;"/><path d="M7.401,9.74c0.408,0 0.816,0 1.225,0.001c0.448,0.107 0.317,0.321 0.318,1.747c-0,1.36 -0.001,2.719 -0.001,4.079c-0.002,3.234 0.088,3.426 -0.319,3.431c-0.833,0.011 -1.463,0.035 -1.525,-0.134c-0.119,-0.326 -0.025,-8.144 -0.017,-8.852c0.004,-0.317 0.245,-0.255 0.319,-0.272Z" style="fill:#12091c;"/><path d="M12.293,9.743c0.41,-0.001 0.819,-0.002 1.229,-0.003c0.247,0.022 0.274,-0.023 0.354,0.076c0.1,0.124 0.037,9.024 0.034,9.034c-0.031,0.105 -0.063,0.213 -1.612,0.146c-0.312,-0.013 -0.214,-0.947 -0.213,-1.277c-0,-1.321 -0,-2.642 -0,-3.963c-0.002,-3.781 -0.041,-3.826 0.21,-4.013Z" style="fill:#12091c;"/><path d="M16.476,9.74c0.361,-0 0.723,-0 1.084,-0c0.48,0.082 0.354,0.254 0.355,2.315c-0,2.04 -0,4.08 -0,6.12c0,0.129 0.087,0.808 -0.214,0.821c-1.451,0.062 -1.494,0.014 -1.571,-0.069c-0.079,-0.086 -0.055,-0.799 -0.055,-1.319c0.008,-7.719 -0.046,-7.784 0.116,-7.842c0.021,-0.007 0.021,-0.002 0.286,-0.026Z" style="fill:#12091c;"/><path d="M6.401,9.74c0.408,0 0.816,0 1.225,0.001c0.448,0.107 0.317,0.321 0.318,1.747c-0,1.36 -0.001,2.719 -0.001,4.079c-0.002,3.234 0.088,3.426 -0.319,3.431c-0.833,0.011 -1.463,0.035 -1.525,-0.134c-0.119,-0.326 -0.025,-8.144 -0.017,-8.852c0.004,-0.317 0.245,-0.255 0.319,-0.272Z" style="fill:#dac8ed;"/><path d="M11.293,9.743c0.41,-0.001 0.819,-0.002 1.229,-0.003c0.247,0.022 0.274,-0.023 0.354,0.076c0.1,0.124 0.037,9.024 0.034,9.034c-0.031,0.105 -0.063,0.213 -1.612,0.146c-0.312,-0.013 -0.214,-0.947 -0.213,-1.277c-0,-1.321 -0,-2.642 -0,-3.963c-0.002,-3.781 -0.041,-3.826 0.21,-4.013Z" style="fill:#dac8ed;"/><path d="M15.476,9.74c0.361,-0 0.723,-0 1.084,-0c0.48,0.082 0.354,0.254 0.355,2.315c-0,2.04 -0,4.08 -0,6.12c0,0.129 0.087,0.808 -0.214,0.821c-1.451,0.062 -1.494,0.014 -1.571,-0.069c-0.079,-0.086 -0.055,-0.799 -0.055,-1.319c0.008,-7.719 -0.046,-7.784 0.116,-7.842c0.021,-0.007 0.021,-0.002 0.286,-0.026Z" style="fill:#dac8ed;"/></svg>